<svg width="95" height="23" viewBox="0 0 95 23" fill="none" xmlns="http://www.w3.org/2000/svg">
<path d="M9.64 5.84551C13.5222 5.84551 16.5527 8.92009 16.5527 13.8385C16.5527 18.7568 13.4882 21.8893 9.64 21.8893C7.33494 21.8893 5.67768 20.854 4.80661 19.476V21.648H0V0.965759H4.80661V8.25884C5.68496 6.87841 7.38347 5.84551 9.64 5.84551ZM8.20597 10.0109C6.40802 10.0109 4.77753 11.3793 4.77753 13.8723C4.77753 16.3652 6.40802 17.7336 8.20597 17.7336C10.0039 17.7336 11.6611 16.3363 11.6611 13.8481C11.6611 11.36 10.033 10.0109 8.20597 10.0109Z" fill="black"/>
<path d="M29.5338 11.7968C29.5338 9.1421 27.9591 7.9113 26.2728 7.9113C24.5307 7.9113 23.0141 9.1421 23.0141 11.7968H18.125C18.125 6.84944 21.6918 3.77484 26.2728 3.77484C30.8538 3.77484 34.423 6.84944 34.423 11.7968H29.5338Z" fill="black"/>
<path d="M42.1754 11.7968C42.1754 9.1421 40.6007 7.9113 38.9143 7.9113C37.1722 7.9113 35.6557 9.1421 35.6557 11.7968H30.7666C30.7666 6.84944 34.3358 3.77484 38.9143 3.77484C43.4929 3.77484 47.0646 6.84944 47.0646 11.7968H42.1754Z" fill="black"/>
<path d="M29.5338 21.8893C29.5338 19.2347 27.9591 18.0039 26.2728 18.0039C24.5307 18.0039 23.0141 19.2322 23.0141 21.8893H18.125C18.125 16.942 21.6918 13.8674 26.2728 13.8674C30.8538 13.8674 34.423 16.942 34.423 21.8893H29.5338Z" fill="black"/>
<path d="M42.1754 21.8893C42.1754 19.2347 40.6007 18.0039 38.9143 18.0039C37.1722 18.0039 35.6557 19.2322 35.6557 21.8893H30.7666C30.7666 16.942 34.3358 13.8674 38.9143 13.8674C43.4929 13.8674 47.0646 16.942 47.0646 21.8893H42.1754Z" fill="black"/>
<path d="M52.8173 5.16976H50.8495L51.5241 1.67526H58.3544L56.2167 12.6318H57.6216L59.6185 10.759H58.1845L58.859 7.26695H66.3056L65.6311 10.759H64.2553L60.7977 14.0581V14.1136C61.1615 14.504 61.448 14.9593 61.6421 15.4554L62.3991 17.1447C62.6806 17.8156 63.0469 18.1776 63.8331 18.1776H64.6192L63.9447 21.6721C63.4595 21.7276 62.7097 21.7566 62.1468 21.7566C58.9925 21.7566 58.6625 20.3858 58.0996 19.0175L57.2018 16.8455C57.0053 16.3628 56.7505 16.0925 56.2749 16.0925H55.547L54.4552 21.6649H49.6218L52.8173 5.16976Z" fill="black"/>
<path d="M75.0648 12.7211H75.9359V12.3012C75.9359 11.1283 74.9799 10.7084 73.8832 10.7084C71.9154 10.7084 69.8942 12.0791 69.8942 12.0791L68.1957 8.80909C70.0024 7.58881 72.1361 6.93638 74.32 6.93634C78.537 6.93634 80.7838 9.03111 80.7838 12.8056V17.555C80.775 17.638 80.785 17.7218 80.813 17.8004C80.841 17.8791 80.8863 17.9505 80.9456 18.0095C81.0049 18.0685 81.0767 18.1135 81.1558 18.1414C81.2348 18.1692 81.3191 18.1791 81.4026 18.1704H82.4701V21.6649H78.2822C76.8773 21.6649 76.3411 20.854 76.3411 20.1566V20.0721C76.341 19.9215 76.3597 19.7716 76.3969 19.6256H76.3411C75.9108 20.3677 75.2867 20.9802 74.5349 21.3983C73.7831 21.8164 72.9317 22.0244 72.0707 22.0003C69.5424 22.0003 67.3223 20.4631 67.3223 17.555C67.3368 13.3365 72.8156 12.7211 75.0648 12.7211ZM73.5192 18.5131C74.7543 18.5131 75.9917 17.0313 75.9917 15.774V15.4385H75.5404C73.939 15.4385 72.226 15.9429 72.226 17.2292C72.2156 17.4004 72.242 17.5718 72.3035 17.732C72.3649 17.8922 72.46 18.0376 72.5823 18.1584C72.7047 18.2792 72.8516 18.3727 73.0131 18.4326C73.1747 18.4925 73.3472 18.5175 73.5192 18.5058V18.5131Z" fill="black"/>
<path d="M95.0001 20.965C91.8402 21.8145 88.5102 21.8145 85.3503 20.965L85.8356 18.3297C86.35 15.9164 87.7767 14.4684 90.1667 14.4684C92.5615 14.4684 94.0489 16.0443 94.5002 18.3297L95.0001 20.965Z" fill="black"/>
</svg>
