<svg width="16" height="16" viewBox="0 0 16 16" fill="none" xmlns="http://www.w3.org/2000/svg">
<path d="M7.17659 14.2543L7.17587 14.2536C5.10604 12.3767 3.42828 10.8523 2.26213 9.42557C1.10148 8.00559 0.5 6.74362 0.5 5.4C0.5 3.20474 2.21155 1.5 4.4 1.5C5.64085 1.5 6.84006 2.08023 7.62058 2.98964L8 3.43172L8.37942 2.98964C9.15994 2.08023 10.3592 1.5 11.6 1.5C13.7885 1.5 15.5 3.20474 15.5 5.4C15.5 6.74362 14.8985 8.00559 13.7379 9.42557C12.5717 10.8523 10.894 12.3767 8.82413 14.2536L8.82341 14.2543L8 15.0038L7.17659 14.2543Z" stroke="#1B1D1F"/>
</svg>
