<svg width="52" height="52" viewBox="0 0 52 52" fill="none" xmlns="http://www.w3.org/2000/svg">
<path d="M26 0L29.506 3.86393L34.0344 1.27253L36.1748 6.03076L41.2824 4.96556L41.8477 10.1523L47.0344 10.7176L45.9692 15.8252L50.7275 17.9656L48.1361 22.494L52 26L48.1361 29.506L50.7275 34.0344L45.9692 36.1748L47.0344 41.2824L41.8477 41.8477L41.2824 47.0344L36.1748 45.9692L34.0344 50.7275L29.506 48.1361L26 52L22.494 48.1361L17.9656 50.7275L15.8252 45.9692L10.7176 47.0344L10.1523 41.8477L4.96556 41.2824L6.03076 36.1748L1.27253 34.0344L3.86393 29.506L0 26L3.86393 22.494L1.27253 17.9656L6.03076 15.8252L4.96556 10.7176L10.1523 10.1523L10.7176 4.96556L15.8252 6.03076L17.9656 1.27253L22.494 3.86393L26 0Z" fill="#23E771"/>
</svg>